<?xml version="1.0" encoding="UTF-8" standalone="no"?>
<!-- Created with Inkscape (http://www.inkscape.org/) -->

<svg
   xmlns="http://www.w3.org/2000/svg"
   xmlns:dc="http://purl.org/dc/elements/1.1/"
   xmlns:cc="http://creativecommons.org/ns#"
   xmlns:rdf="http://www.w3.org/1999/02/22-rdf-syntax-ns#"
   xmlns:svg="http://www.w3.org/2000/svg"
   width="400"
   height="400"
>
  <g transform="translate(-256.6798,-531.7963)">
    <g style="font-style:normal;font-weight:normal;line-height:0%;font-family:'Times New Roman';text-align:start;text-anchor:start;fill:#000000;fill-opacity:1;stroke:none;stroke-width:1px;stroke-linecap:butt;stroke-linejoin:miter;stroke-opacity:1">
      <path
         d="m 453.30927,673.76611 q -9.76563,-10.9375 -27.14844,-26.17187 -19.14063,-16.79688 -25.78125,-26.36719 -6.64063,-9.76562 -6.64063,-21.28906 0,-17.1875 16.01563,-26.95313 16.01562,-9.96093 41.79687,-9.96093 25.78125,0 44.92188,8.78906 19.33594,8.78906 19.33594,24.21875 0,7.42187 -4.6875,12.30469 -4.6875,4.88281 -10.9375,4.88281 -8.98438,0 -21.09375,-13.47656 -12.30469,-13.67188 -20.89844,-19.14063 -8.39844,-5.66406 -19.72656,-5.66406 -14.45313,0 -23.82813,6.44531 -9.17969,6.44531 -9.17969,16.40625 0,9.375 7.61719,17.57813 7.61719,8.20312 39.25781,29.88281 33.78907,23.24219 47.65625,36.32812 14.0625,13.08594 22.85157,31.83594 8.78906,18.75 8.78906,39.64844 0,36.71875 -25.97656,64.84375 -25.78125,27.92969 -60.35157,27.92969 -31.44531,0 -53.125,-22.46094 -21.67968,-22.46094 -21.67968,-59.96094 0,-36.13281 23.82812,-60.35156 24.02344,-24.21875 58.98438,-29.29688 z m 8.59375,8.98438 q -56.05469,9.17969 -56.05469,76.95312 0,34.96094 13.86719,54.29688 14.0625,19.33594 32.61718,19.33594 19.33594,0 31.83594,-18.55469 12.5,-18.75 12.5,-50.58594 0,-46.09375 -34.76562,-81.44531 z"
         style="font-size:400px;line-height:1.25;text-align:center;text-anchor:middle"
      />
    </g>
  </g>
</svg>
